<svg width="21" height="21" viewBox="0 0 21 21" fill="none" xmlns="http://www.w3.org/2000/svg">
<path d="M11.7695 7.03418C12.3761 7.03418 12.8931 7.24594 13.3193 7.6709C13.7457 8.09585 13.959 8.61264 13.959 9.21973C13.9589 9.82659 13.7456 10.3434 13.3193 10.7695L13.1875 10.9004C12.2087 10.9026 11.2965 11.1866 10.5264 11.6748L9.29883 10.4678L3.83008 15.9365L5.05566 17.1836L8.91016 13.3281C8.46199 14.0739 8.20307 14.9464 8.19922 15.8789L5.6084 18.4658C5.45042 18.6239 5.26635 18.7031 5.05566 18.7031C4.84482 18.7031 4.66017 18.624 4.50195 18.4658L2.52637 16.4902C2.36835 16.332 2.28906 16.1474 2.28906 15.9365C2.28917 15.7258 2.36839 15.5409 2.52637 15.3828L10.2227 7.67285C10.6471 7.24666 11.163 7.03422 11.7695 7.03418ZM18.9951 8.96875C19.1807 8.96883 19.3363 9.03171 19.4619 9.15723C19.5877 9.283 19.6513 9.43922 19.6514 9.625C19.6514 9.81108 19.5878 9.96721 19.4619 10.0928C19.3363 10.2183 19.1808 10.2812 18.9951 10.2812H17.0264C16.8405 10.2812 16.6844 10.2185 16.5586 10.0928C16.4329 9.96694 16.3701 9.8109 16.3701 9.625C16.3701 9.43892 16.4329 9.28279 16.5586 9.15723C16.6844 9.03168 16.8405 8.96875 17.0264 8.96875H18.9951ZM6.03809 3.625C6.21422 3.62502 6.37026 3.69238 6.50586 3.82812L7.88379 5.21973C8.01402 5.34981 8.08024 5.50234 8.08301 5.67676C8.08576 5.85108 8.01943 6.00589 7.88379 6.1416C7.74816 6.27737 7.59218 6.3457 7.41602 6.3457C7.23989 6.34567 7.08384 6.27734 6.94824 6.1416L5.55664 4.76367C5.42677 4.63373 5.36277 4.47946 5.36426 4.30078C5.36601 4.12184 5.43454 3.9639 5.57031 3.82812C5.70592 3.6924 5.86195 3.625 6.03809 3.625ZM16.8691 3.46094C17.0478 3.45827 17.2051 3.52448 17.3408 3.66016C17.4765 3.79589 17.5439 3.95198 17.5439 4.12793C17.5439 4.30398 17.4765 4.46 17.3408 4.5957L15.9492 5.9873C15.819 6.11735 15.6666 6.18128 15.4922 6.17969C15.3178 6.17794 15.1631 6.10915 15.0273 5.97363C14.8917 5.83786 14.8232 5.68203 14.8232 5.50586C14.8232 5.32984 14.8917 5.17386 15.0273 5.03809L16.4053 3.66016C16.5355 3.53013 16.6902 3.46385 16.8691 3.46094ZM11.376 1.34961C11.5618 1.34967 11.7173 1.41253 11.8428 1.53809C11.9685 1.66379 12.0322 1.81992 12.0322 2.00586V3.97461C12.0322 4.16055 11.9686 4.31653 11.8428 4.44238C11.7169 4.568 11.5609 4.63086 11.375 4.63086C11.1892 4.6308 11.0337 4.56787 10.9082 4.44238C10.7825 4.31653 10.7197 4.16055 10.7197 3.97461V2.00586C10.7197 1.81992 10.7823 1.66379 10.9082 1.53809C11.034 1.41239 11.1902 1.34961 11.376 1.34961Z" fill="#03D3E0"/>
<path d="M13.2482 20.1874C12.6684 20.1874 12.1221 20.076 11.6092 19.8533C11.0962 19.6361 10.6447 19.3325 10.2544 18.9427C9.86414 18.5529 9.55751 18.1018 9.33451 17.5894C9.1115 17.077 9 16.5285 9 15.9437C9 15.3589 9.1115 14.8131 9.33451 14.3063C9.55751 13.794 9.86414 13.3429 10.2544 12.953C10.6447 12.5576 11.0962 12.2513 11.6092 12.0341C12.1221 11.8113 12.6684 11.7 13.2482 11.7C13.8336 11.7 14.3828 11.8113 14.8957 12.0341C15.4086 12.2513 15.8602 12.5548 16.2504 12.9447C16.6407 13.3345 16.9445 13.7856 17.162 14.298C17.385 14.8104 17.4965 15.3589 17.4965 15.9437C17.4965 16.5229 17.385 17.0687 17.162 17.581C16.939 18.0934 16.6295 18.5445 16.2337 18.9344C15.8435 19.3242 15.3919 19.6305 14.879 19.8533C14.3661 20.076 13.8225 20.1874 13.2482 20.1874ZM12.7465 18.2326C12.9416 18.2326 13.0866 18.1658 13.1813 18.0321L15.6149 14.6656C15.6539 14.6099 15.6818 14.5542 15.6985 14.4985C15.7208 14.4428 15.732 14.3927 15.732 14.3481C15.732 14.1977 15.679 14.0752 15.5731 13.9805C15.4671 13.8803 15.3445 13.8302 15.2051 13.8302C15.0211 13.8302 14.8734 13.9081 14.7619 14.0641L12.7214 16.8877L11.6928 15.7766C11.6482 15.7265 11.5924 15.6847 11.5255 15.6513C11.4586 15.6179 11.3806 15.6012 11.2914 15.6012C11.1464 15.6012 11.0238 15.6513 10.9234 15.7515C10.8231 15.8518 10.7729 15.9771 10.7729 16.1275C10.7729 16.1832 10.784 16.2472 10.8063 16.3196C10.8286 16.3864 10.8621 16.4477 10.9067 16.5034L12.3283 18.0488C12.3785 18.1101 12.4426 18.1547 12.5207 18.1825C12.5987 18.2159 12.674 18.2326 12.7465 18.2326Z" fill="#03D3E0"/>
</svg>
