<svg width="69" height="31" viewBox="0 0 69 31" fill="none" xmlns="http://www.w3.org/2000/svg">
<mask id="mask0_3191_10576" style="mask-type:alpha" maskUnits="userSpaceOnUse" x="0" y="0" width="69" height="31">
<path d="M23.4688 16.1211L28.1279 10.2305C28.3691 9.92578 28.6379 9.77344 28.9341 9.77344C29.1372 9.77344 29.3636 9.84115 29.6133 9.97656L35.0786 12.9028L39.6807 10.2559C39.8711 10.1458 40.0467 10.1056 40.2075 10.1353C40.3726 10.1649 40.5037 10.2389 40.6011 10.3574C40.6984 10.4717 40.7471 10.6113 40.7471 10.7764C40.7513 10.9372 40.6899 11.098 40.563 11.2588L35.8911 17.1621C35.6499 17.4668 35.3791 17.6191 35.0786 17.6191C34.9728 17.6191 34.8649 17.6022 34.7549 17.5684C34.6449 17.5303 34.5264 17.4795 34.3994 17.416L28.9404 14.4897L24.3384 17.1177C24.1649 17.2192 23.9935 17.2616 23.8242 17.2446C23.6592 17.2277 23.5216 17.1685 23.4116 17.0669C23.3058 16.9611 23.2508 16.8257 23.2466 16.6606C23.2466 16.4956 23.3206 16.3158 23.4688 16.1211Z" fill="#03D3E0"/>
<path d="M55.5091 15.5473C54.233 15.5473 53.0662 15.1939 52.0088 14.4869C50.9514 13.7799 50.1067 12.833 49.4747 11.6463C48.8427 10.4596 48.5267 9.1403 48.5267 7.68845C48.5267 6.27449 48.8366 4.98676 49.4564 3.82529C50.0885 2.66382 50.9332 1.7359 51.9905 1.04154C53.0479 0.34718 54.2208 0 55.5091 0C56.7974 0 57.9703 0.340867 59.0277 1.0226C60.0851 1.70434 60.9298 2.62594 61.5618 3.78742C62.1938 4.94889 62.5098 6.24292 62.5098 7.66952C62.5098 9.12136 62.1938 10.4406 61.5618 11.6274C60.9298 12.8141 60.079 13.7673 59.0095 14.4869C57.9521 15.1939 56.7853 15.5473 55.5091 15.5473ZM46.0108 31C44.686 31 43.6833 30.7664 43.0027 30.2993C42.3342 29.8448 42 29.1379 42 28.1784C42 27.0926 42.2978 25.9312 42.8933 24.694C43.4889 23.4567 44.3579 22.2953 45.5003 21.2095C46.655 20.1112 48.0709 19.2211 49.7481 18.5394C51.4254 17.845 53.3396 17.4979 55.4909 17.4979C57.6543 17.4979 59.5685 17.845 61.2336 18.5394C62.9109 19.2211 64.3268 20.1112 65.4814 21.2095C66.6361 22.2953 67.5111 23.4567 68.1067 24.694C68.7022 25.9312 69 27.0926 69 28.1784C69 29.1379 68.6597 29.8448 67.9791 30.2993C67.3106 30.7664 66.314 31 64.9892 31H46.0108Z" fill="#03D3E0"/>
<path d="M10.5071 18.0367C9.51452 18.0367 8.60702 17.763 7.78461 17.2156C6.96219 16.6683 6.3052 15.9352 5.81364 15.0165C5.32208 14.0977 5.0763 13.0764 5.0763 11.9524C5.0763 10.8577 5.31735 9.86072 5.79946 8.96151C6.29102 8.06231 6.94801 7.34392 7.77043 6.80635C8.59284 6.26878 9.50506 6 10.5071 6C11.5091 6 12.4213 6.2639 13.2438 6.79169C14.0662 7.31949 14.7232 8.03299 15.2147 8.93219C15.7063 9.8314 15.9521 10.8332 15.9521 11.9377C15.9521 13.0617 15.7063 14.0831 15.2147 15.0018C14.7232 15.9206 14.0614 16.6585 13.2296 17.2156C12.4072 17.763 11.4997 18.0367 10.5071 18.0367ZM3.11951 30C2.08913 30 1.30925 29.8192 0.779878 29.4575C0.259959 29.1057 0 28.5583 0 27.8155C0 26.975 0.2316 26.0757 0.694801 25.1179C1.158 24.16 1.8339 23.2608 2.72249 22.4203C3.62053 21.5699 4.72181 20.8809 6.02633 20.3531C7.33086 19.8155 8.81972 19.5467 10.4929 19.5467C12.1756 19.5467 13.6644 19.8155 14.9595 20.3531C16.264 20.8809 17.3653 21.5699 18.2633 22.4203C19.1614 23.2608 19.842 24.16 20.3052 25.1179C20.7684 26.0757 21 26.975 21 27.8155C21 28.5583 20.7353 29.1057 20.2059 29.4575C19.686 29.8192 18.9109 30 17.8805 30H3.11951Z" fill="#03D3E0"/>
</mask>
<g mask="url(#mask0_3191_10576)">
<rect x="-11" y="46" width="63" height="85" transform="rotate(-90 -11 46)" fill="url(#paint0_linear_3191_10576)"/>
</g>
<defs>
<linearGradient id="paint0_linear_3191_10576" x1="31.8909" y1="46" x2="6.41872" y2="130.186" gradientUnits="userSpaceOnUse">
<stop offset="0.0721154" stop-color="#D8EB05"/>
<stop offset="0.985577" stop-color="#03D3E0"/>
</linearGradient>
</defs>
</svg>
