<svg width="26" height="26" viewBox="0 0 26 26" fill="none" xmlns="http://www.w3.org/2000/svg">
<path d="M4.84375 3.65897C5.04396 3.45855 5.27409 3.35833 5.53415 3.35833C5.7942 3.35833 6.02433 3.45855 6.22454 3.65897L8.25892 5.71336C8.45116 5.90539 8.54933 6.13014 8.55342 6.38761C8.55751 6.64509 8.45934 6.87404 8.25892 7.07446C8.05871 7.27488 7.82858 7.37509 7.56852 7.37509C7.30847 7.37509 7.07833 7.27488 6.87813 7.07446L4.82373 5.04008C4.6317 4.84806 4.53687 4.61997 4.53924 4.35582C4.54182 4.09168 4.64333 3.85939 4.84375 3.65897ZM13.4136 0C13.6883 0 13.9184 0.0928925 14.1037 0.278677C14.2893 0.464247 14.3821 0.694271 14.3821 0.96875V3.875C14.3821 4.14948 14.2892 4.37961 14.1034 4.5654C13.9176 4.75097 13.6875 4.84375 13.413 4.84375C13.1383 4.84375 12.9083 4.75097 12.7229 4.5654C12.5373 4.37961 12.4446 4.14948 12.4446 3.875V0.96875C12.4446 0.694271 12.5375 0.464247 12.7232 0.278677C12.909 0.0928925 13.1392 0 13.4136 0ZM18.5551 17.3707C18.7555 17.1702 18.9857 17.07 19.2455 17.07C19.5056 17.07 19.7358 17.1702 19.9362 17.3707L21.9706 19.4247C22.1626 19.6168 22.2607 19.8415 22.2648 20.099C22.2691 20.3567 22.171 20.5856 21.9706 20.7858C21.7702 20.9862 21.5399 21.0865 21.2799 21.0865C21.02 21.0865 20.7899 20.9862 20.5895 20.7858L18.5354 18.7514C18.3432 18.5594 18.2483 18.3313 18.2509 18.0672C18.2533 17.803 18.3547 17.5709 18.5551 17.3707ZM22.2189 3.41065C22.4193 3.61107 22.5196 3.8412 22.5196 4.10104C22.5196 4.3611 22.4193 4.59134 22.2189 4.79176L20.1649 6.84583C19.9726 7.03786 19.7478 7.13269 19.4903 7.13032C19.2328 7.12774 19.0039 7.02634 18.8034 6.82614C18.6032 6.62571 18.5031 6.39547 18.5031 6.13542C18.5031 5.87558 18.6032 5.64544 18.8034 5.44502L20.8378 3.41065C21.0301 3.21862 21.2582 3.12045 21.5224 3.11615C21.7863 3.11206 22.0185 3.21022 22.2189 3.41065ZM25.6296 12.2166C25.6296 12.4913 25.5367 12.7213 25.3509 12.9067C25.1653 13.0922 24.9353 13.185 24.6608 13.185H21.7546C21.4801 13.185 21.25 13.0921 21.0642 12.9063C20.8786 12.7205 20.7858 12.4904 20.7858 12.2159C20.7858 11.9412 20.8786 11.7112 21.0642 11.5259C21.25 11.3403 21.4801 11.2475 21.7546 11.2475H24.6608C24.9353 11.2475 25.1653 11.3404 25.3509 11.5262C25.5367 11.712 25.6296 11.9421 25.6296 12.2166ZM3.2663 25.2669L0.350042 22.351C0.11668 22.1174 0 21.845 0 21.5337C0 21.2224 0.11668 20.95 0.350042 20.7164L11.7119 9.33488C12.3385 8.70562 13.0997 8.39099 13.9952 8.39099C14.8905 8.39099 15.6528 8.70465 16.2821 9.33197C16.9116 9.95929 17.2263 10.721 17.2263 11.6173C17.2263 12.5135 16.9116 13.2762 16.2821 13.9054L4.90058 25.2669C4.66722 25.5005 4.3949 25.6173 4.0836 25.6173C3.77231 25.6173 3.49988 25.5005 3.2663 25.2669ZM4.0836 23.3743L12.1888 15.2691L10.3482 13.4608L2.27527 21.5337L4.0836 23.3743Z" fill="#FAFAFA"/>
</svg>
