<svg width="21" height="21" viewBox="0 0 21 21" fill="none" xmlns="http://www.w3.org/2000/svg">
<path d="M11.7695 7.03418C12.3761 7.03418 12.8931 7.24594 13.3193 7.6709C13.7457 8.09585 13.959 8.61264 13.959 9.21973C13.9589 9.82659 13.7455 10.3434 13.3193 10.7695L5.6084 18.4658C5.45042 18.6239 5.26635 18.7031 5.05566 18.7031C4.84482 18.7031 4.66017 18.624 4.50195 18.4658L2.52637 16.4902C2.36835 16.332 2.28906 16.1474 2.28906 15.9365C2.28917 15.7258 2.36839 15.5409 2.52637 15.3828L10.2227 7.67285C10.6471 7.24666 11.163 7.03422 11.7695 7.03418ZM3.83008 15.9365L5.05566 17.1836L10.5459 11.6934L9.29883 10.4678L3.83008 15.9365ZM15.3262 12.9131C15.5023 12.9131 15.6582 12.9814 15.7939 13.1172L17.1729 14.5078C17.3029 14.6378 17.3693 14.7905 17.3721 14.9648C17.375 15.1394 17.3086 15.2951 17.1729 15.4307C17.0371 15.5664 16.8803 15.6338 16.7041 15.6338C16.5282 15.6337 16.372 15.5663 16.2363 15.4307L14.8457 14.0518C14.7155 13.9217 14.6506 13.7677 14.6523 13.5889C14.6539 13.4101 14.7228 13.2527 14.8584 13.1172C14.9941 12.9815 15.1502 12.9131 15.3262 12.9131ZM18.9951 8.96875C19.1807 8.96883 19.3363 9.03171 19.4619 9.15723C19.5877 9.283 19.6513 9.43922 19.6514 9.625C19.6514 9.81108 19.5878 9.96721 19.4619 10.0928C19.3363 10.2183 19.1808 10.2812 18.9951 10.2812H17.0264C16.8405 10.2812 16.6844 10.2185 16.5586 10.0928C16.4329 9.96694 16.3701 9.8109 16.3701 9.625C16.3701 9.43892 16.4329 9.28279 16.5586 9.15723C16.6844 9.03168 16.8405 8.96875 17.0264 8.96875H18.9951ZM6.03809 3.625C6.21422 3.62502 6.37026 3.69238 6.50586 3.82812L7.88379 5.21973C8.01402 5.34981 8.08024 5.50234 8.08301 5.67676C8.08576 5.85108 8.01943 6.00589 7.88379 6.1416C7.74816 6.27737 7.59218 6.3457 7.41602 6.3457C7.23989 6.34567 7.08384 6.27734 6.94824 6.1416L5.55664 4.76367C5.42677 4.63373 5.36277 4.47946 5.36426 4.30078C5.36601 4.12184 5.43454 3.9639 5.57031 3.82812C5.70592 3.6924 5.86195 3.625 6.03809 3.625ZM16.8691 3.46094C17.0478 3.45827 17.2051 3.52448 17.3408 3.66016C17.4765 3.79589 17.5439 3.95198 17.5439 4.12793C17.5439 4.30398 17.4765 4.46 17.3408 4.5957L15.9492 5.9873C15.819 6.11735 15.6666 6.18128 15.4922 6.17969C15.3178 6.17794 15.1631 6.10915 15.0273 5.97363C14.8917 5.83786 14.8232 5.68203 14.8232 5.50586C14.8232 5.32984 14.8917 5.17386 15.0273 5.03809L16.4053 3.66016C16.5355 3.53013 16.6902 3.46385 16.8691 3.46094ZM11.376 1.34961C11.5618 1.34967 11.7173 1.41253 11.8428 1.53809C11.9685 1.66379 12.0322 1.81992 12.0322 2.00586V3.97461C12.0322 4.16055 11.9686 4.31653 11.8428 4.44238C11.7169 4.568 11.5609 4.63086 11.375 4.63086C11.1892 4.6308 11.0337 4.56787 10.9082 4.44238C10.7825 4.31653 10.7197 4.16055 10.7197 3.97461V2.00586C10.7197 1.81992 10.7823 1.66379 10.9082 1.53809C11.034 1.41239 11.1902 1.34961 11.376 1.34961Z" fill="#FAFAFA"/>
</svg>
