<svg width="21" height="21" viewBox="0 0 21 21" fill="none" xmlns="http://www.w3.org/2000/svg">
<path d="M4.31152 15.4092C4.31155 15.8327 4.42056 16.1529 4.6377 16.3701C4.85489 16.5819 5.16706 16.6884 5.57422 16.6885H7.26172V18H5.55859C4.7058 18 4.06486 17.7879 3.63574 17.3643C3.21213 16.9461 3.00007 16.3163 3 15.4746V13.7061H4.31152V15.4092ZM11.0479 16.6885C11.1112 17.1487 11.2372 17.5886 11.417 18H8.37793V16.6885H11.0479ZM4.31152 12.5898H3V8.41016H4.31152V12.5898ZM18 11.416C17.5888 11.2363 17.1485 11.1112 16.6885 11.0479V8.41016H18V11.416ZM7.26172 4.31152H5.57422C5.16706 4.31161 4.85489 4.42051 4.6377 4.6377C4.42045 4.84951 4.31155 5.16722 4.31152 5.59082V7.29395H3V5.52539C3.00007 4.68366 3.21213 4.05393 3.63574 3.63574C4.06486 3.21206 4.7058 3 5.55859 3H7.26172V4.31152ZM15.4414 3C16.2942 3 16.9328 3.21206 17.3564 3.63574C17.7854 4.05393 17.9999 4.68377 18 5.52539V7.29395H16.6885V5.59082C16.6884 5.16733 16.5771 4.84951 16.3545 4.6377C16.1373 4.42051 15.8275 4.31161 15.4258 4.31152H13.7383V3H15.4414ZM12.6221 4.31152H8.37793V3H12.6221V4.31152Z" fill="#03D3E0"/>
<path d="M15.9982 20.2375C15.4184 20.2375 14.8721 20.1261 14.3592 19.9033C13.8462 19.6861 13.3947 19.3826 13.0044 18.9928C12.6141 18.6029 12.3075 18.1518 12.0845 17.6394C11.8615 17.1271 11.75 16.5785 11.75 15.9937C11.75 15.409 11.8615 14.8632 12.0845 14.3564C12.3075 13.844 12.6141 13.3929 13.0044 13.0031C13.3947 12.6077 13.8462 12.3014 14.3592 12.0842C14.8721 11.8614 15.4184 11.75 15.9982 11.75C16.5836 11.75 17.1328 11.8614 17.6457 12.0842C18.1586 12.3014 18.6102 12.6049 19.0004 12.9947C19.3907 13.3846 19.6945 13.8357 19.912 14.348C20.135 14.8604 20.2465 15.409 20.2465 15.9937C20.2465 16.5729 20.135 17.1187 19.912 17.6311C19.689 18.1434 19.3795 18.5946 18.9837 18.9844C18.5935 19.3742 18.1419 19.6805 17.629 19.9033C17.1161 20.1261 16.5725 20.2375 15.9982 20.2375ZM15.4965 18.2827C15.6916 18.2827 15.8366 18.2158 15.9313 18.0822L18.3649 14.7156C18.4039 14.6599 18.4318 14.6042 18.4485 14.5485C18.4708 14.4928 18.482 14.4427 18.482 14.3982C18.482 14.2478 18.429 14.1253 18.3231 14.0306C18.2171 13.9303 18.0945 13.8802 17.9551 13.8802C17.7711 13.8802 17.6234 13.9582 17.5119 14.1141L15.4714 16.9377L14.4428 15.8267C14.3982 15.7765 14.3424 15.7348 14.2755 15.7014C14.2086 15.6679 14.1306 15.6512 14.0414 15.6512C13.8964 15.6512 13.7738 15.7014 13.6734 15.8016C13.5731 15.9018 13.5229 16.0272 13.5229 16.1775C13.5229 16.2332 13.534 16.2973 13.5563 16.3697C13.5786 16.4365 13.6121 16.4977 13.6567 16.5534L15.0783 18.0989C15.1285 18.1602 15.1926 18.2047 15.2707 18.2326C15.3487 18.266 15.424 18.2827 15.4965 18.2827Z" fill="#03D3E0"/>
</svg>
