<svg width="27" height="18" viewBox="0 0 27 18" fill="none" xmlns="http://www.w3.org/2000/svg">
<path d="M13.878 14.5972L24.6088 3.86635C24.6667 3.80844 24.6957 3.73804 24.6957 3.65516C24.6957 3.57228 24.6667 3.50188 24.6088 3.44397L23.352 2.18718C23.2939 2.12927 23.2235 2.10031 23.1409 2.10031C23.058 2.10031 22.9876 2.12927 22.9297 2.18718L12.1988 12.918L13.878 14.5972ZM1.9375 12.4831C1.9375 13.1821 2.17764 13.7285 2.65793 14.1225C3.13821 14.5167 3.90665 14.7801 4.96323 14.9127C5.22479 14.9473 5.43501 15.0661 5.59389 15.2689C5.75298 15.4719 5.82585 15.7041 5.8125 15.9657C5.79937 16.2406 5.70131 16.4675 5.51832 16.6464C5.33534 16.8251 5.11715 16.8971 4.86377 16.8625C3.25242 16.6637 2.039 16.1984 1.22353 15.4665C0.407844 14.7345 0 13.7401 0 12.4831C0 11.175 0.548958 10.114 1.64688 9.30007C2.74479 8.4861 4.27079 7.99301 6.22486 7.82078C7.16391 7.73962 7.86819 7.56988 8.33771 7.31154C8.80702 7.05321 9.04167 6.69553 9.04167 6.23849C9.04167 5.67382 8.797 5.23002 8.30768 4.90711C7.81835 4.58419 7.01569 4.3391 5.89969 4.17183C5.63791 4.13695 5.42339 4.01693 5.25611 3.81177C5.08884 3.6064 5.02265 3.37282 5.05752 3.11105C5.09218 2.83635 5.21177 2.61289 5.41628 2.44067C5.6208 2.26845 5.85803 2.20386 6.12799 2.24692C7.774 2.49686 8.99409 2.94894 9.78825 3.60317C10.5822 4.25718 10.9792 5.13562 10.9792 6.23849C10.9792 7.26343 10.5855 8.0761 9.79826 8.67651C9.01077 9.27671 7.86765 9.6373 6.36889 9.75828C4.89186 9.8825 3.78405 10.1706 3.04543 10.6227C2.30681 11.0748 1.9375 11.6949 1.9375 12.4831ZM14.1809 17.0362L9.75951 12.6148L21.8217 0.565169C22.2026 0.184343 22.6477 -0.00402508 23.157 6.51974e-05C23.6661 0.00415548 24.1111 0.192524 24.4919 0.565169L26.2308 2.30375C26.6117 2.6848 26.8021 3.13193 26.8021 3.64515C26.8021 4.15859 26.6117 4.60572 26.2308 4.98654L14.1809 17.0362ZM9.8664 17.9281C9.57491 17.9976 9.3183 17.9214 9.09656 17.6994C8.87461 17.4775 8.7984 17.2209 8.86794 16.9296L9.75951 12.6148L14.1809 17.0362L9.8664 17.9281Z" fill="#FAFAFA"/>
</svg>
