<svg width="25" height="21" viewBox="0 0 25 21" fill="none" xmlns="http://www.w3.org/2000/svg">
<path d="M19.416 5C19.7769 5.00297 20.0924 5.13939 20.3623 5.40918L21.5947 6.66797C21.8647 6.94389 22 7.26802 22 7.63965C22 8.0114 21.8647 8.33559 21.5947 8.61133L13.0527 17.3359L9.99414 17.9824C9.7876 18.0327 9.60537 17.9771 9.44824 17.8164C9.29105 17.6557 9.23686 17.4696 9.28613 17.2588L9.91895 14.1348L18.4697 5.40918C18.7397 5.13356 19.055 4.99704 19.416 5ZM7.34375 6.62695C8.51052 6.80792 9.37549 7.1357 9.93848 7.60938C10.5013 8.08296 10.7832 8.71898 10.7832 9.51758C10.7832 10.2597 10.5043 10.8485 9.94629 11.2832C9.38804 11.7178 8.57712 11.9788 7.51465 12.0664C6.46778 12.1564 5.68274 12.3651 5.15918 12.6924C4.63562 13.0197 4.37309 13.4684 4.37305 14.0391C4.37305 14.5452 4.54341 14.9413 4.88379 15.2266C5.22426 15.512 5.76954 15.7028 6.51855 15.7988C6.7039 15.824 6.85323 15.9098 6.96582 16.0566C7.07846 16.2036 7.12957 16.3722 7.12012 16.5615C7.11072 16.7603 7.04159 16.9243 6.91211 17.0537C6.78245 17.183 6.62776 17.235 6.44824 17.21C5.30595 17.0661 4.44528 16.7292 3.86719 16.1992C3.28912 15.6692 3 14.9491 3 14.0391C3.00004 13.0921 3.38893 12.3237 4.16699 11.7344C4.94531 11.145 6.02784 10.7878 7.41309 10.6631C8.07827 10.6043 8.57736 10.4818 8.91016 10.2949C9.2428 10.1079 9.40913 9.84845 9.40918 9.51758C9.40918 9.10885 9.23627 8.78752 8.88965 8.55371C8.5428 8.31991 7.97362 8.14163 7.18262 8.02051C6.99704 7.99525 6.84416 7.90832 6.72559 7.75977C6.60734 7.61122 6.56032 7.44221 6.58496 7.25293C6.60953 7.05402 6.69486 6.89229 6.83984 6.76758C6.98472 6.64298 7.15256 6.59591 7.34375 6.62695ZM19.4043 6.52051C19.3457 6.52057 19.2959 6.54211 19.2549 6.58398L11.6475 14.3545L12.8379 15.5703L20.4453 7.7998C20.4864 7.75787 20.5068 7.70649 20.5068 7.64648C20.5068 7.5867 20.4862 7.53596 20.4453 7.49414L19.5547 6.58398C19.5135 6.54205 19.4629 6.52051 19.4043 6.52051Z" fill="#FAFAFA"/>
</svg>
