<svg width="23" height="22" viewBox="0 0 23 22" fill="none" xmlns="http://www.w3.org/2000/svg">
<path d="M0 6.29766V3.70451C0 2.46967 0.324823 1.54554 0.97447 0.932102C1.63245 0.310701 2.61525 0 3.92287 0H6.53395V1.92395H3.94785C3.32319 1.92395 2.84429 2.08329 2.51114 2.40196C2.17798 2.71266 2.01141 3.17871 2.01141 3.80011V6.29766H0ZM8.24552 1.92395V0H14.7545V1.92395H8.24552ZM20.9886 6.29766V3.80011C20.9886 3.17871 20.8179 2.71266 20.4764 2.40196C20.1432 2.08329 19.6685 1.92395 19.0521 1.92395H16.4661V0H19.0771C20.3848 0 21.3634 0.310701 22.013 0.932102C22.671 1.54554 23 2.46967 23 3.70451V6.29766H20.9886ZM20.9886 14.0652V7.93482H23V14.0652H20.9886ZM16.4661 22V20.076H19.0521C19.6685 20.076 20.1432 19.9207 20.4764 19.61C20.8179 19.2913 20.9886 18.8213 20.9886 18.1999V15.7023H23V18.2955C23 19.5303 22.671 20.4545 22.013 21.0679C21.3634 21.6893 20.3848 22 19.0771 22H16.4661ZM8.24552 22V20.076H14.7545V22H8.24552ZM3.92287 22C2.61525 22 1.63245 21.6893 0.97447 21.0679C0.324823 20.4545 0 19.5303 0 18.2955V15.7023H2.01141V18.1999C2.01141 18.8213 2.17798 19.2913 2.51114 19.61C2.84429 19.9207 3.32319 20.076 3.94785 20.076H6.53395V22H3.92287ZM0 14.0652V7.93482H2.01141V14.0652H0Z" fill="#FAFAFA"/>
</svg>
