<svg width="23" height="23" viewBox="0 0 23 23" fill="none" xmlns="http://www.w3.org/2000/svg">
<circle cx="11.5" cy="11.5" r="11.5" fill="#CBDB16"/>
<path d="M14.845 13.0549C14.915 12.8449 14.97 12.6099 15.01 12.3499C15.06 12.0799 15.085 11.8299 15.085 11.5999C15.085 10.8199 14.945 10.1449 14.665 9.57492C14.385 8.99492 13.98 8.54992 13.45 8.23992C12.93 7.92992 12.315 7.77492 11.605 7.77492C10.895 7.77492 10.275 7.92992 9.74497 8.23992C9.22497 8.54992 8.82497 8.99492 8.54497 9.57492C8.26497 10.1449 8.12497 10.8199 8.12497 11.5999C8.12497 12.3699 8.26497 13.0449 8.54497 13.6249C8.82497 14.1949 9.22497 14.6349 9.74497 14.9449C10.275 15.2549 10.895 15.4099 11.605 15.4099C11.995 15.4099 12.36 15.3649 12.7 15.2749C13.04 15.1849 13.31 15.0649 13.51 14.9149L11.935 13.1899L13.63 11.6599L14.845 13.0549ZM15.865 17.4499L14.89 16.3549C14.48 16.6649 13.97 16.9149 13.36 17.1049C12.75 17.2949 12.165 17.3899 11.605 17.3899C10.495 17.3899 9.49997 17.1449 8.61997 16.6549C7.74997 16.1649 7.06997 15.4799 6.57997 14.5999C6.08997 13.7199 5.84497 12.7199 5.84497 11.5999C5.84497 10.4799 6.08997 9.47992 6.57997 8.59992C7.06997 7.71992 7.74997 7.03492 8.61997 6.54492C9.49997 6.04492 10.495 5.79492 11.605 5.79492C12.715 5.79492 13.705 6.04492 14.575 6.54492C15.455 7.03492 16.14 7.71992 16.63 8.59992C17.12 9.47992 17.365 10.4799 17.365 11.5999C17.345 12.1099 17.25 12.6599 17.08 13.2499C16.91 13.8399 16.7 14.3449 16.45 14.7649L17.53 15.9199L15.865 17.4499Z" fill="#2B2B2B"/>
</svg>
