<svg width="25" height="21" viewBox="0 0 25 21" fill="none" xmlns="http://www.w3.org/2000/svg">
<path d="M19.416 5C19.7769 5.00297 20.0924 5.13939 20.3623 5.40918L21.5947 6.66797C21.8647 6.94389 22 7.26802 22 7.63965C22 8.0114 21.8647 8.33559 21.5947 8.61133L20.2285 10.0059C20.1528 10.0025 20.0766 10 20 10C19.2043 10 18.452 10.1859 17.7842 10.5166L20.4453 7.7998C20.4864 7.75787 20.5068 7.70649 20.5068 7.64648C20.5068 7.5867 20.4862 7.53596 20.4453 7.49414L19.5547 6.58398C19.5135 6.54205 19.4629 6.52051 19.4043 6.52051C19.3457 6.52057 19.2959 6.54211 19.2549 6.58398L11.6475 14.3545L12.8379 15.5703L15.4707 12.8799C15.1689 13.5236 15 14.242 15 15C15 15.1122 15.0044 15.2236 15.0117 15.334L13.0527 17.3359L9.99414 17.9824C9.7876 18.0327 9.60537 17.9771 9.44824 17.8164C9.29105 17.6557 9.23686 17.4696 9.28613 17.2588L9.91895 14.1348L18.4697 5.40918C18.7396 5.13356 19.055 4.99704 19.416 5ZM7.34375 6.62695C8.51052 6.80792 9.37549 7.1357 9.93848 7.60938C10.5013 8.08296 10.7832 8.71898 10.7832 9.51758C10.7832 10.2597 10.5043 10.8485 9.94629 11.2832C9.38804 11.7178 8.57712 11.9788 7.51465 12.0664C6.46778 12.1564 5.68274 12.3651 5.15918 12.6924C4.63562 13.0197 4.37309 13.4684 4.37305 14.0391C4.37305 14.5452 4.54341 14.9413 4.88379 15.2266C5.22426 15.512 5.76954 15.7028 6.51855 15.7988C6.7039 15.824 6.85323 15.9098 6.96582 16.0566C7.07845 16.2036 7.12957 16.3722 7.12012 16.5615C7.11072 16.7603 7.04159 16.9243 6.91211 17.0537C6.78245 17.183 6.62776 17.235 6.44824 17.21C5.30595 17.0661 4.44528 16.7292 3.86719 16.1992C3.28912 15.6692 3 14.9491 3 14.0391C3.00004 13.0921 3.38893 12.3237 4.16699 11.7344C4.94531 11.145 6.02784 10.7878 7.41309 10.6631C8.07827 10.6043 8.57736 10.4818 8.91016 10.2949C9.2428 10.1079 9.40913 9.84845 9.40918 9.51758C9.40918 9.10885 9.23627 8.78752 8.88965 8.55371C8.5428 8.31991 7.97362 8.14163 7.18262 8.02051C6.99704 7.99525 6.84416 7.90832 6.72559 7.75977C6.60734 7.61122 6.56032 7.44221 6.58496 7.25293C6.60953 7.05402 6.69486 6.89229 6.83984 6.76758C6.98472 6.64298 7.15255 6.59591 7.34375 6.62695Z" fill="#03D3E0"/>
<path d="M20.049 19.1874C19.4692 19.1874 18.9228 19.076 18.4099 18.8533C17.897 18.6361 17.4454 18.3325 17.0552 17.9427C16.6649 17.5529 16.3583 17.1018 16.1353 16.5894C15.9123 16.077 15.8008 15.5285 15.8008 14.9437C15.8008 14.3589 15.9123 13.8131 16.1353 13.3063C16.3583 12.794 16.6649 12.3429 17.0552 11.953C17.4454 11.5576 17.897 11.2513 18.4099 11.0341C18.9228 10.8113 19.4692 10.7 20.049 10.7C20.6344 10.7 21.1836 10.8113 21.6965 11.0341C22.2094 11.2513 22.661 11.5548 23.0512 11.9447C23.4415 12.3345 23.7453 12.7856 23.9628 13.298C24.1858 13.8104 24.2973 14.3589 24.2973 14.9437C24.2973 15.5229 24.1858 16.0687 23.9628 16.581C23.7397 17.0934 23.4303 17.5445 23.0345 17.9344C22.6442 18.3242 22.1927 18.6305 21.6797 18.8533C21.1668 19.076 20.6233 19.1874 20.049 19.1874ZM19.5473 17.2326C19.7424 17.2326 19.8873 17.1658 19.9821 17.0321L22.4157 13.6656C22.4547 13.6099 22.4826 13.5542 22.4993 13.4985C22.5216 13.4428 22.5327 13.3927 22.5327 13.3481C22.5327 13.1977 22.4798 13.0752 22.3738 12.9805C22.2679 12.8803 22.1453 12.8302 22.0059 12.8302C21.8219 12.8302 21.6742 12.9081 21.5627 13.0641L19.5222 15.8877L18.4936 14.7766C18.449 14.7265 18.3932 14.6847 18.3263 14.6513C18.2594 14.6179 18.1814 14.6012 18.0922 14.6012C17.9472 14.6012 17.8245 14.6513 17.7242 14.7515C17.6238 14.8518 17.5737 14.9771 17.5737 15.1275C17.5737 15.1832 17.5848 15.2472 17.6071 15.3196C17.6294 15.3864 17.6629 15.4477 17.7075 15.5034L19.1291 17.0488C19.1793 17.1101 19.2434 17.1547 19.3215 17.1825C19.3995 17.2159 19.4748 17.2326 19.5473 17.2326Z" fill="#03D3E0"/>
</svg>
