<svg width="15" height="10" viewBox="0 0 15 10" fill="none" xmlns="http://www.w3.org/2000/svg">
<path d="M2.12518 4.14737C1.73702 4.14737 1.3804 4.0552 1.05531 3.87088C0.73508 3.68182 0.477923 3.43133 0.283843 3.11939C0.0946143 2.80272 0 2.45534 0 2.07723C0 1.69439 0.0946143 1.34701 0.283843 1.03507C0.477923 0.718404 0.73508 0.467908 1.05531 0.283581C1.3804 0.0945269 1.73702 0 2.12518 0C2.5182 0 2.87482 0.0945269 3.19505 0.283581C3.52014 0.467908 3.77729 0.718404 3.96652 1.03507C4.1606 1.34701 4.25764 1.69439 4.25764 2.07723C4.25764 2.45534 4.1606 2.80272 3.96652 3.11939C3.77729 3.43133 3.52014 3.68182 3.19505 3.87088C2.87482 4.0552 2.5182 4.14737 2.12518 4.14737ZM7.49636 4.14737C7.1082 4.14737 6.75158 4.0552 6.42649 3.87088C6.10626 3.68182 5.8491 3.43133 5.65502 3.11939C5.46579 2.80272 5.37118 2.45534 5.37118 2.07723C5.37118 1.69439 5.46579 1.34701 5.65502 1.03507C5.8491 0.718404 6.10626 0.467908 6.42649 0.283581C6.75158 0.0945269 7.1082 0 7.49636 0C7.88937 0 8.246 0.0945269 8.56623 0.283581C8.89132 0.467908 9.14847 0.718404 9.3377 1.03507C9.53178 1.34701 9.62882 1.69439 9.62882 2.07723C9.62882 2.45534 9.53178 2.80272 9.3377 3.11939C9.14847 3.43133 8.89132 3.68182 8.56623 3.87088C8.246 4.0552 7.88937 4.14737 7.49636 4.14737ZM12.8675 4.14737C12.4794 4.14737 12.1228 4.0552 11.7977 3.87088C11.4774 3.68182 11.2203 3.43133 11.0262 3.11939C10.837 2.80272 10.7424 2.45534 10.7424 2.07723C10.7424 1.69439 10.837 1.34701 11.0262 1.03507C11.2203 0.718404 11.4774 0.467908 11.7977 0.283581C12.1228 0.0945269 12.4794 0 12.8675 0C13.2606 0 13.6172 0.0945269 13.9374 0.283581C14.2576 0.467908 14.5148 0.718404 14.7089 1.03507C14.903 1.34701 15 1.69439 15 2.07723C15 2.45534 14.903 2.80272 14.7089 3.11939C14.5148 3.43133 14.2576 3.68182 13.9374 3.87088C13.6172 4.0552 13.2606 4.14737 12.8675 4.14737ZM2.12518 10C1.73702 10 1.3804 9.90784 1.05531 9.72351C0.73508 9.53446 0.477923 9.28396 0.283843 8.97202C0.0946143 8.65536 0 8.30797 0 7.92986C0 7.54703 0.0946143 7.19964 0.283843 6.8877C0.477923 6.57576 0.73508 6.32527 1.05531 6.13621C1.3804 5.94716 1.73702 5.85263 2.12518 5.85263C2.5182 5.85263 2.87482 5.94716 3.19505 6.13621C3.52014 6.32527 3.77729 6.57576 3.96652 6.8877C4.1606 7.19964 4.25764 7.54703 4.25764 7.92986C4.25764 8.30797 4.1606 8.65536 3.96652 8.97202C3.77729 9.28396 3.52014 9.53446 3.19505 9.72351C2.87482 9.90784 2.5182 10 2.12518 10ZM7.49636 10C7.1082 10 6.75158 9.90784 6.42649 9.72351C6.10626 9.53446 5.8491 9.28396 5.65502 8.97202C5.46579 8.65536 5.37118 8.30797 5.37118 7.92986C5.37118 7.54703 5.46579 7.19964 5.65502 6.8877C5.8491 6.57576 6.10626 6.32527 6.42649 6.13621C6.75158 5.94716 7.1082 5.85263 7.49636 5.85263C7.88937 5.85263 8.246 5.94716 8.56623 6.13621C8.89132 6.32527 9.14847 6.57576 9.3377 6.8877C9.53178 7.19964 9.62882 7.54703 9.62882 7.92986C9.62882 8.30797 9.53178 8.65536 9.3377 8.97202C9.14847 9.28396 8.89132 9.53446 8.56623 9.72351C8.246 9.90784 7.88937 10 7.49636 10ZM12.8675 10C12.4794 10 12.1228 9.90784 11.7977 9.72351C11.4774 9.53446 11.2203 9.28396 11.0262 8.97202C10.837 8.65536 10.7424 8.30797 10.7424 7.92986C10.7424 7.54703 10.837 7.19964 11.0262 6.8877C11.2203 6.57576 11.4774 6.32527 11.7977 6.13621C12.1228 5.94716 12.4794 5.85263 12.8675 5.85263C13.2606 5.85263 13.6172 5.94716 13.9374 6.13621C14.2576 6.32527 14.5124 6.57576 14.7016 6.8877C14.8957 7.19964 14.9927 7.54703 14.9927 7.92986C14.9927 8.30797 14.8957 8.65536 14.7016 8.97202C14.5124 9.28396 14.2576 9.53446 13.9374 9.72351C13.6172 9.90784 13.2606 10 12.8675 10Z" fill="white"/>
</svg>
