<svg width="21" height="21" viewBox="0 0 21 21" fill="none" xmlns="http://www.w3.org/2000/svg">
<path d="M4.31152 15.4092C4.31155 15.8327 4.42056 16.1529 4.6377 16.3701C4.85489 16.5819 5.16706 16.6884 5.57422 16.6885H7.26172V18H5.55859C4.7058 18 4.06486 17.7879 3.63574 17.3643C3.21213 16.9461 3.00007 16.3163 3 15.4746V13.7061H4.31152V15.4092ZM12.6221 18H8.37793V16.6885H12.6221V18ZM18 15.4746C17.9999 16.3162 17.7854 16.9461 17.3564 17.3643C16.9328 17.7879 16.2942 18 15.4414 18H13.7383V16.6885H15.4258C15.8275 16.6884 16.1373 16.5819 16.3545 16.3701C16.5769 16.1529 16.6884 15.8326 16.6885 15.4092V13.7061H18V15.4746ZM4.31152 12.5898H3V8.41016H4.31152V12.5898ZM18 12.5898H16.6885V8.41016H18V12.5898ZM7.26172 4.31152H5.57422C5.16706 4.31161 4.85489 4.42051 4.6377 4.6377C4.42045 4.84951 4.31155 5.16722 4.31152 5.59082V7.29395H3V5.52539C3.00007 4.68366 3.21213 4.05393 3.63574 3.63574C4.06486 3.21206 4.7058 3 5.55859 3H7.26172V4.31152ZM15.4414 3C16.2942 3 16.9328 3.21206 17.3564 3.63574C17.7854 4.05393 17.9999 4.68377 18 5.52539V7.29395H16.6885V5.59082C16.6884 5.16733 16.5771 4.84951 16.3545 4.6377C16.1373 4.42051 15.8275 4.31161 15.4258 4.31152H13.7383V3H15.4414ZM12.6221 4.31152H8.37793V3H12.6221V4.31152Z" fill="#FAFAFA"/>
</svg>
